HIERARCHY
ROOT Hips
{
	OFFSET 0.000000 0.000000 0.000000
	CHANNELS 6 Xposition Yposition Zposition Zrotation Yrotation Xrotation 
	JOINT LowerBack
	{
		OFFSET 0.000000 0.000000 0.000000
		CHANNELS 3 Zrotation Yrotation Xrotation
		JOINT Spine
		{
			OFFSET 0.028270 2.035590 -0.193380
			CHANNELS 3 Zrotation Yrotation Xrotation
			JOINT Spine1
			{
				OFFSET 0.056720 2.048850 -0.042750
				CHANNELS 3 Zrotation Yrotation Xrotation
				JOINT Neck
				{
					OFFSET 0.000000 0.000000 0.000000
					CHANNELS 3 Zrotation Yrotation Xrotation
					JOINT Neck1
					{
						OFFSET -0.054170 1.746240 0.172020
						CHANNELS 3 Zrotation Yrotation Xrotation
						JOINT Head
						{
							OFFSET 0.104070 1.761360 -0.123970
							CHANNELS 3 Zrotation Yrotation Xrotation
							End Site
							{
								OFFSET 0.000000 0.000000 0.000000
							}
						}
					}
				}
				JOINT LeftShoulder
				{
					OFFSET 0.000000 0.000000 0.000000
					CHANNELS 3 Zrotation Yrotation Xrotation
					JOINT LeftArm
					{
						OFFSET 3.362410 1.200890 -0.311210
						CHANNELS 3 Zrotation Yrotation Xrotation
						JOINT LeftForeArm
						{
							OFFSET 4.983000 -0.000000 -0.000000
							CHANNELS 3 Zrotation Yrotation Xrotation
							JOINT LeftHand
							{
								OFFSET 3.483560 -0.000000 -0.000000
								CHANNELS 3 Zrotation Yrotation Xrotation
								JOINT LeftFingerBase
								{
									OFFSET 0.000000 0.000000 0.000000
									CHANNELS 3 Zrotation Yrotation Xrotation
									JOINT LeftHandIndex1
									{
										OFFSET 0.715260 -0.000000 -0.000000
										CHANNELS 3 Zrotation Yrotation Xrotation
										End Site
										{
											OFFSET 0.000000 0.000000 0.000000
										}
									}
								}
								JOINT LThumb
								{
									OFFSET 0.000000 0.000000 0.000000
									CHANNELS 3 Zrotation Yrotation Xrotation
									End Site
									{
										OFFSET 0.000000 0.000000 0.000000
									}
								}
							}
						}
					}
				}
				JOINT RightShoulder
				{
					OFFSET 0.000000 0.000000 0.000000
					CHANNELS 3 Zrotation Yrotation Xrotation
					JOINT RightArm
					{
						OFFSET -3.136600 1.374050 -0.404650
						CHANNELS 3 Zrotation Yrotation Xrotation
						JOINT RightForeArm
						{
							OFFSET -5.241900 -0.000000 -0.000000
							CHANNELS 3 Zrotation Yrotation Xrotation
							JOINT RightHand
							{
								OFFSET -3.444170 -0.000000 -0.000000
								CHANNELS 3 Zrotation Yrotation Xrotation
								JOINT RightFingerBase
								{
									OFFSET 0.000000 0.000000 0.000000
									CHANNELS 3 Zrotation Yrotation Xrotation
									JOINT RightHandIndex1
									{
										OFFSET -0.622530 -0.000000 -0.000000
										CHANNELS 3 Zrotation Yrotation Xrotation
										End Site
										{
											OFFSET 0.000000 0.000000 0.000000
										}
									}
								}
								JOINT RThumb
								{
									OFFSET 0.000000 0.000000 0.000000
									CHANNELS 3 Zrotation Yrotation Xrotation
									End Site
									{
										OFFSET 0.000000 0.000000 0.000000
									}
								}
							}
						}
					}
				}
			}
		}
	}
}
}
MOTION
Frames: 17
Frame Time: 0.008333
15.568721 17.073685 1.027317 14.073549 -88.175795 15.659557 1.811235 -2.380455 -0.136997 0.078085 -2.467740 -2.967278 -4.334842 -2.553792 0.555753 8.156094 -16.669365 -13.627853 -0.444215 0.086266 -1.847537 0.000000 0.000000 0.000000 4.482939 10.084641 2.252621 -71.294137 31.188193 24.037352 -1.472315 -57.301855 -0.001862 13.543340 -1.774174 -0.218788 -0.230058 0.050111 -0.000000 0.000000 0.000000 0.000000 0.000000 0.000000 0.000000 4.033574 -12.835091 3.251648 73.524423 -28.424797 15.075129 2.210673 47.631640 0.015473 -8.793713 8.228230 -0.652175 0.181766 -0.081648 0.000000 0.000000 0.000000 0.000000 0.000000 0.000000 0.000000 
15.562943 17.018052 1.028664 16.775696 -88.114940 13.777787 1.727456 -2.394655 -0.039427 0.064756 -2.472130 -2.964788 -4.297497 -2.559858 0.478409 8.211323 -16.706507 -13.780895 -0.405392 0.094093 -1.912489 0.000000 0.000000 0.000000 4.645130 9.953596 2.327526 -71.468560 31.459905 23.457752 -1.433423 -58.033485 -0.003482 13.933909 -1.885652 -0.240062 -0.235261 0.058241 -0.000000 0.000000 0.000000 0.000000 0.000000 0.000000 0.000000 3.986768 -12.808304 3.329881 73.422782 -28.861075 15.318152 2.141853 48.573109 0.014772 -8.863142 8.297889 -0.663169 0.181096 -0.086517 0.000000 0.000000 0.000000 0.000000 0.000000 0.000000 0.000000 
15.557469 16.952124 1.029716 19.538356 -88.033863 11.872771 1.634241 -2.414494 0.043414 0.048511 -2.482317 -2.963146 -4.263804 -2.571803 0.409408 8.302458 -16.764618 -13.954093 -0.373562 0.101781 -1.984583 0.000000 0.000000 0.000000 4.796864 9.856626 2.409756 -71.689324 31.626197 22.736639 -1.396549 -58.669649 -0.005230 14.366052 -2.039378 -0.268337 -0.240482 0.067055 -0.000000 0.000000 0.000000 0.000000 0.000000 0.000000 0.000000 4.018669 -12.807376 3.402871 73.259796 -29.251700 15.587976 2.073188 49.498477 0.013971 -8.933563 8.347804 -0.672662 0.180423 -0.091525 0.000000 0.000000 0.000000 0.000000 0.000000 0.000000 0.000000 
15.552366 16.875251 1.030619 22.286902 -87.933630 10.021703 1.539132 -2.438471 0.096563 0.030025 -2.497916 -2.965251 -4.237621 -2.589476 0.351784 8.417755 -16.809393 -14.136996 -0.352645 0.108723 -2.060579 0.000000 0.000000 0.000000 4.930252 9.769252 2.498633 -71.972849 31.699479 21.841598 -1.362630 -59.189646 -0.007096 14.823689 -2.236745 -0.304316 -0.245399 0.076467 -0.000000 0.000000 0.000000 0.000000 0.000000 0.000000 0.000000 4.117993 -12.797748 3.480426 73.157628 -29.528801 15.612387 2.019312 50.233109 0.013087 -8.873920 8.359090 -0.669462 0.178802 -0.096609 0.000000 0.000000 0.000000 0.000000 0.000000 0.000000 0.000000 
15.547103 16.786409 1.031352 25.007009 -87.813079 8.252708 1.438015 -2.464009 0.101935 0.009149 -2.516698 -2.974242 -4.214785 -2.610801 0.309065 8.553756 -16.845905 -14.327371 -0.340622 0.115027 -2.139377 0.000000 0.000000 0.000000 5.069536 9.700198 2.595296 -72.338127 31.649171 20.793770 -1.333622 -59.538037 -0.009052 15.305435 -2.476350 -0.348401 -0.249994 0.086279 -0.000000 0.000000 0.000000 0.000000 0.000000 0.000000 0.000000 4.275730 -12.786322 3.556571 73.082149 -29.734012 15.487639 1.974399 50.828334 0.012216 -8.764350 8.367163 -0.662165 0.176806 -0.101791 0.000000 0.000000 0.000000 0.000000 0.000000 0.000000 0.000000 
15.541698 16.684635 1.031946 27.675745 -87.672045 6.596356 1.331109 -2.489066 0.043222 -0.013845 -2.537203 -2.993504 -4.194038 -2.634523 0.283405 8.701454 -16.863841 -14.519210 -0.337188 0.120558 -2.218778 0.000000 0.000000 0.000000 5.224802 9.641693 2.699695 -72.800829 31.469421 19.587073 -1.310824 -59.682164 -0.011074 15.801438 -2.754863 -0.400493 -0.254118 0.096322 -0.000000 0.000000 0.000000 0.000000 0.000000 0.000000 0.000000 4.476231 -12.763308 3.631604 73.061140 -29.871159 15.174156 1.939274 51.255874 0.011420 -8.623228 8.393894 -0.653971 0.174572 -0.107110 0.000000 0.000000 0.000000 0.000000 0.000000 0.000000 0.000000 
15.535672 16.569292 1.032642 30.185656 -87.511814 5.159093 1.224209 -2.511604 -0.086982 -0.038048 -2.557988 -3.026863 -4.176143 -2.659389 0.267585 8.849944 -16.838720 -14.701619 -0.345381 0.124751 -2.295129 0.000000 0.000000 0.000000 5.386876 9.563440 2.811869 -73.371641 31.189725 18.183649 -1.294428 -59.624150 -0.013146 16.295157 -3.065635 -0.459694 -0.257511 0.106441 -0.000000 0.000000 0.000000 0.000000 0.000000 0.000000 0.000000 4.710333 -12.701173 3.706230 73.114517 -29.979680 14.629455 1.913492 51.531140 0.010726 -8.455625 8.455056 -0.646379 0.172127 -0.112697 0.000000 0.000000 0.000000 0.000000 0.000000 0.000000 0.000000 
15.529149 16.439490 1.033414 32.535056 -87.330803 3.946499 1.117873 -2.530753 -0.300194 -0.062446 -2.578468 -3.076021 -4.157974 -2.684915 0.266653 8.990213 -16.776639 -14.874584 -0.361976 0.127876 -2.368054 0.000000 0.000000 0.000000 5.563298 9.477043 2.930725 -74.046091 30.788731 16.605476 -1.284644 -59.343793 -0.015264 16.784988 -3.400028 -0.525304 -0.260175 0.116470 -0.000000 0.000000 0.000000 0.000000 0.000000 0.000000 0.000000 4.956778 -12.607713 3.779843 73.253834 -30.048478 13.859235 1.895895 51.641321 0.010139 -8.287342 8.550666 -0.641088 0.169674 -0.118444 0.000000 0.000000 0.000000 0.000000 0.000000 0.000000 0.000000 
15.521687 16.294826 1.034453 34.655663 -87.128582 3.020958 1.018732 -2.546337 -0.597503 -0.085812 -2.598796 -3.142890 -4.141013 -2.711317 0.275463 9.114725 -16.667783 -15.033558 -0.388648 0.129639 -2.435917 0.000000 0.000000 0.000000 5.733656 9.368146 3.054821 -74.808217 30.288200 14.836929 -1.280019 -58.868898 -0.017432 17.262875 -3.747762 -0.595424 -0.261965 0.126275 -0.000000 0.000000 0.000000 0.000000 0.000000 0.000000 0.000000 5.209017 -12.471624 3.853588 73.491317 -30.088184 12.837103 1.885498 51.596428 0.009635 -8.126614 8.680179 -0.638497 0.167274 -0.124397 0.000000 0.000000 0.000000 0.000000 0.000000 0.000000 0.000000 
15.513387 16.134989 1.035834 36.532268 -86.903329 2.391337 0.930239 -2.559021 -0.979093 -0.106571 -2.619649 -3.226428 -4.123339 -2.739186 0.299448 9.220473 -16.534491 -15.185547 -0.421144 0.130582 -2.500679 0.000000 0.000000 0.000000 5.889769 9.264081 3.181441 -75.624097 29.660349 12.924502 -1.279142 -58.208517 -0.019665 17.736323 -4.099449 -0.669153 -0.262974 0.135738 -0.000000 0.000000 0.000000 0.000000 0.000000 0.000000 0.000000 5.452792 -12.318404 3.926376 73.813713 -30.066502 11.611329 1.880420 51.393341 0.009202 -8.002516 8.845010 -0.641009 0.165151 -0.130449 0.000000 0.000000 0.000000 0.000000 0.000000 0.000000 0.000000 
15.503957 15.960200 1.037743 38.123029 -86.654819 2.088605 0.859716 -2.569920 -1.435468 -0.123278 -2.642181 -3.324996 -4.106877 -2.769543 0.337073 9.308191 -16.388893 -15.335176 -0.459241 0.130817 -2.563817 0.000000 0.000000 0.000000 6.003022 9.176993 3.307789 -76.448845 28.902915 10.898609 -1.279313 -57.404687 -0.021999 18.210959 -4.446269 -0.745090 -0.263181 0.144773 -0.000000 0.000000 0.000000 0.000000 0.000000 0.000000 0.000000 5.690207 -12.161641 3.997828 74.201121 -29.962322 10.217016 1.878799 51.044651 0.008801 -7.932522 9.043068 -0.649920 0.163428 -0.136598 0.000000 0.000000 0.000000 0.000000 0.000000 0.000000 0.000000 
15.493540 15.771347 1.040405 39.391951 -86.383885 2.129527 0.816102 -2.580601 -1.950377 -0.135025 -2.668073 -3.436539 -4.097213 -2.803895 0.381786 9.383653 -16.234073 -15.485561 -0.506419 0.130068 -2.626482 0.000000 0.000000 0.000000 6.033081 9.107322 3.431253 -77.228902 28.030334 8.785859 -1.276928 -56.522222 -0.024462 18.693581 -4.778440 -0.821834 -0.262480 0.153247 -0.000000 0.000000 0.000000 0.000000 0.000000 0.000000 0.000000 5.939751 -12.004548 4.068138 74.630088 -29.760502 8.673781 1.879696 50.566376 0.008414 -7.916172 9.280551 -0.665832 0.162064 -0.142945 0.000000 0.000000 0.000000 0.000000 0.000000 0.000000 0.000000 
15.482177 15.569642 1.043942 40.356835 -86.091864 2.481535 0.803674 -2.592183 -2.507703 -0.141108 -2.698375 -3.556997 -4.096341 -2.843061 0.434367 9.455507 -16.093033 -15.646562 -0.562114 0.128608 -2.692049 0.000000 0.000000 0.000000 5.953843 9.083725 3.548742 -77.905562 27.018419 6.666322 -1.269339 -55.596745 -0.027080 19.202548 -5.090601 -0.899284 -0.260915 0.161020 -0.000000 0.000000 0.000000 0.000000 0.000000 0.000000 0.000000 6.215708 -11.873608 4.135158 75.053407 -29.420074 7.071581 1.880634 49.971698 0.007940 -7.973513 9.525188 -0.688543 0.161200 -0.149263 0.000000 0.000000 0.000000 0.000000 0.000000 0.000000 0.000000 
15.469850 15.357018 1.048418 41.045276 -85.781893 3.097406 0.830105 -2.605867 -3.089379 -0.141108 -2.734650 -3.682963 -4.110297 -2.888517 0.491333 9.529912 -15.966083 -15.820447 -0.630537 0.126085 -2.761760 0.000000 0.000000 0.000000 5.723340 9.104787 3.656626 -78.421756 25.874770 4.597631 -1.253388 -54.682803 -0.029876 19.751590 -5.374648 -0.976539 -0.258360 0.167885 -0.000000 0.000000 0.000000 0.000000 0.000000 0.000000 0.000000 6.541311 -11.772468 4.202596 75.479269 -28.846696 5.369044 1.880708 49.192495 0.007004 -8.111055 9.621884 -0.707662 0.160883 -0.154819 0.000000 0.000000 0.000000 0.000000 0.000000 0.000000 0.000000 
15.456062 15.135604 1.053868 41.503313 -85.458058 3.918877 0.889159 -2.621265 -3.674124 -0.137440 -2.775967 -3.811053 -4.142729 -2.938957 0.544585 9.628735 -15.864663 -16.014105 -0.714452 0.122366 -2.838128 0.000000 0.000000 0.000000 5.340028 9.188716 3.754605 -78.739603 24.572546 2.667986 -1.228722 -53.785966 -0.032769 20.357721 -5.634782 -1.055099 -0.254803 0.173545 -0.000000 0.000000 0.000000 0.000000 0.000000 0.000000 0.000000 6.953795 -11.711334 4.259672 75.771931 -28.144945 3.828375 1.877741 48.376850 0.006085 -8.346754 9.811872 -0.742577 0.161114 -0.160733 0.000000 0.000000 0.000000 0.000000 0.000000 0.000000 0.000000 
15.441191 14.908219 1.060220 41.785411 -85.126041 4.872220 0.982590 -2.638357 -4.245149 -0.131243 -2.822545 -3.938327 -4.199588 -2.994579 0.589789 9.756700 -15.770125 -16.222859 -0.819535 0.116791 -2.920355 0.000000 0.000000 0.000000 4.783889 9.317322 3.839622 -78.828624 23.114783 0.933713 -1.194863 -52.917282 -0.035690 21.027453 -5.868402 -1.134764 -0.250033 0.177689 -0.000000 0.000000 0.000000 0.000000 0.000000 0.000000 0.000000 7.475077 -11.674048 4.310817 75.957117 -27.228237 2.382552 1.873157 47.423786 0.004891 -8.677054 9.972180 -0.784593 0.161815 -0.166354 0.000000 0.000000 0.000000 0.000000 0.000000 0.000000 0.000000 
15.425026 14.677978 1.067259 41.943689 -84.791485 5.887185 1.105083 -2.656305 -4.785871 -0.124756 -2.873212 -4.061945 -4.284006 -3.054148 0.622000 9.919895 -15.663174 -16.440739 -0.949957 0.108815 -3.007146 0.000000 0.000000 0.000000 4.062108 9.474183 3.909969 -78.679461 21.486833 -0.549484 -1.153543 -52.045853 -0.038508 21.761783 -6.079600 -1.216234 -0.243868 0.180021 -0.000000 0.000000 0.000000 0.000000 0.000000 0.000000 0.000000 8.123163 -11.642169 4.355954 76.022353 -26.075329 1.053541 1.867404 46.294306 0.003383 -9.105839 10.100021 -0.833814 0.162897 -0.171570 0.000000 0.000000 0.000000 0.000000 0.000000 0.000000 0.000000 
